<svg version="1.1" id="Layer_1" xmlns="http://www.w3.org/2000/svg" xmlns:xlink="http://www.w3.org/1999/xlink" x="0px" y="0px"
	 width="100%" viewBox="0 0 1024 704" enable-background="new 0 0 1024 704" xml:space="preserve">
<path fill="#000000" opacity="1.000000" stroke="none" 
	d="
M426.458252,359.680756 
	C436.226532,331.857574 455.125061,314.325226 483.802795,309.482849 
	C522.347351,302.974365 557.101379,327.113892 563.989380,365.044159 
	C571.596191,406.932556 543.455688,444.539429 501.122437,450.303558 
	C462.517700,455.560028 426.393372,426.044952 423.591248,387.171082 
	C422.923798,377.911743 423.761810,368.932129 426.458252,359.680756 
z"/>
<path fill="#000000" opacity="1.000000" stroke="none" 
	d="
M581.878662,264.972412 
	C588.612610,260.894012 595.099976,257.129883 601.424744,253.109879 
	C605.574036,250.472565 609.053650,250.795685 612.665527,254.138046 
	C620.002502,260.927460 627.592041,267.444489 634.905884,274.257935 
	C637.372498,276.555756 639.418091,276.784851 642.411743,275.220398 
	C654.368896,268.971649 666.458496,262.976349 678.491699,256.872833 
	C684.751221,253.697891 686.701660,253.984589 691.626160,259.131744 
	C696.117676,263.826447 700.581177,268.549988 704.968994,273.341400 
	C709.342224,278.116974 709.285828,280.577667 704.627197,285.233856 
	C696.259094,293.597565 687.880981,301.953979 679.353149,310.153381 
	C676.997253,312.418488 676.659729,314.168945 678.583801,316.929413 
	C682.391541,322.392334 685.956116,328.035187 689.405029,333.734528 
	C692.443237,338.755066 691.558899,341.630310 686.161804,344.045563 
	C676.889160,348.195160 667.483032,352.045959 658.195923,356.164154 
	C653.694946,358.160065 650.461914,356.920715 648.055115,352.877625 
	C644.902710,347.582245 641.655151,342.336945 638.707397,336.928986 
	C637.070618,333.926056 635.485779,333.421661 632.401733,335.142731 
	C623.384827,340.174713 614.213196,344.932526 605.055054,349.707397 
	C599.228027,352.745483 596.982117,352.219757 593.151245,347.104523 
	C590.854736,344.037964 588.634460,340.912323 586.447876,337.765991 
	C582.821655,332.548126 583.354858,327.094727 587.707642,322.438995 
	C593.610046,316.125854 599.423828,309.729889 605.643982,302.969055 
	C601.133606,296.854340 594.839844,290.687134 589.096924,284.055847 
	C586.479553,281.033691 583.806274,278.059967 581.159180,275.063568 
	C578.134399,271.639648 577.680786,268.320068 581.878662,264.972412 
z"/>
<path fill="#000000" opacity="1.000000" stroke="none" 
	d="
M992.828247,437.375854 
	C993.417236,444.635132 994.013367,451.436096 994.429443,458.248077 
	C994.770142,463.825043 992.920105,466.010925 987.322266,466.104584 
	C976.160156,466.291321 964.992615,466.284607 953.828857,466.184723 
	C948.433228,466.136475 946.624207,464.224030 946.698425,458.850494 
	C946.792603,452.027008 946.479492,445.184326 947.478760,438.387421 
	C947.688965,436.957306 948.040955,435.389313 946.424988,433.650848 
	C937.941223,434.985840 929.119141,436.375671 920.296265,437.761047 
	C918.651917,438.019257 917.010803,438.312927 915.357849,438.498199 
	C910.403809,439.053436 907.483643,437.120056 907.128174,432.176239 
	C906.650940,425.539795 906.717529,418.857788 906.725830,412.195587 
	C906.730042,408.839966 908.951416,407.243896 912.007019,406.471649 
	C919.266113,404.636993 926.509155,402.738434 933.752136,400.841034 
	C934.518250,400.640350 935.241394,400.275604 935.956726,399.997711 
	C936.092773,397.198944 934.072083,396.005829 932.620178,394.516632 
	C927.266724,389.025848 922.076599,383.401825 917.380981,377.322296 
	C915.078369,374.340942 915.066650,371.644653 917.517700,368.789673 
	C924.047607,361.183380 931.519043,354.522552 938.830383,347.718628 
	C942.470642,344.331146 945.905396,346.185638 948.811035,349.320343 
	C956.286316,357.384888 963.922546,365.310120 971.137146,373.601898 
	C974.378479,377.327209 977.311646,378.290314 981.863525,376.044952 
	C987.526855,373.251282 993.474243,371.010773 999.375183,368.728455 
	C1004.519409,366.738770 1007.220398,367.897217 1009.241394,373.015228 
	C1012.727356,381.843262 1016.065430,390.730713 1019.376709,399.626282 
	C1021.175171,404.457764 1019.914368,407.295349 1015.066467,409.017273 
	C1008.789917,411.246643 1002.489014,413.450562 996.083923,415.259216 
	C992.085449,416.388306 990.737671,418.533661 991.289551,422.523102 
	C991.950378,427.299133 992.282837,432.120575 992.828247,437.375854 
z"/>
<path fill="#000000" opacity="1.000000" stroke="none" 
	d="
M351.001678,347.728638 
	C367.145569,348.056000 382.789368,348.393494 398.433868,348.692841 
	C401.385529,348.749329 404.199005,349.031036 405.500061,352.221497 
	C406.870148,355.581329 404.514801,357.548706 402.466217,359.469208 
	C377.452423,382.918945 352.408813,406.336945 327.374359,429.764587 
	C325.429474,431.584625 323.513397,433.435852 321.551819,435.237610 
	C317.061310,439.362213 314.040680,439.166077 310.452545,434.126678 
	C303.984741,425.042877 297.673401,415.847198 291.336121,406.671051 
	C280.458893,390.921234 269.594543,375.162415 258.770935,359.375763 
	C257.118622,356.965820 254.723541,354.604462 256.443604,351.258911 
	C258.294617,347.658600 261.766876,347.740692 265.139252,347.748291 
	C293.593475,347.812439 322.047333,346.507172 351.001678,347.728638 
z"/>
<path fill="#000000" opacity="1.000000" stroke="none" 
	d="
M740.206421,431.069580 
	C727.790039,430.157318 715.835999,429.370117 703.905212,428.319458 
	C700.312317,428.003052 696.735779,427.132416 693.239990,426.188965 
	C690.008423,425.316711 689.112793,421.767151 691.559631,418.411621 
	C694.098450,414.929871 697.087158,411.755676 700.047119,408.604767 
	C722.271606,384.946198 744.536987,361.326111 766.793213,337.697357 
	C767.592102,336.849213 768.406616,336.013367 769.251160,335.211029 
	C774.257996,330.454102 777.998413,331.095276 780.767456,337.382599 
	C785.127258,347.281677 789.360229,357.236969 793.601807,367.187653 
	C801.693665,386.170990 809.771057,405.160553 817.818665,424.162689 
	C821.253113,432.272217 819.175171,435.645233 810.439636,435.193115 
	C787.177246,433.989197 763.930603,432.480927 740.206421,431.069580 
z"/>
<path fill="#000000" opacity="1.000000" stroke="none" 
	d="
M804.729980,331.152100 
	C786.994934,299.268341 804.863159,263.778595 841.861389,257.879089 
	C859.859802,255.009201 875.317993,261.373688 886.218140,276.053040 
	C897.696167,291.510803 898.469849,308.566650 889.599426,325.533081 
	C872.654663,357.943542 825.877808,362.540619 804.729980,331.152100 
z"/>
<path fill="#000000" opacity="1.000000" stroke="none" 
	d="
M127.692024,412.206146 
	C129.960495,387.983093 150.101624,369.755402 173.878326,368.573090 
	C199.114548,367.318146 220.968231,385.102783 223.854614,409.680695 
	C226.149460,429.221741 213.160324,450.348145 192.783524,458.338043 
	C164.631073,469.376862 133.780457,453.031921 128.202652,424.133789 
	C127.469231,420.334045 127.662468,416.503052 127.692024,412.206146 
z"/>
<path fill="#000000" opacity="1.000000" stroke="none" 
	d="
M61.706047,385.360229 
	C46.275711,384.582642 31.315262,383.847870 16.359625,383.025574 
	C14.382300,382.916870 12.345482,382.605743 10.482473,381.963867 
	C6.308229,380.525726 5.587754,376.530701 8.490747,373.297546 
	C27.837543,351.750275 48.880192,331.852783 68.962906,311.022278 
	C76.936577,302.751709 85.062439,294.627991 93.105972,286.424591 
	C95.285988,284.201202 97.610481,282.228363 100.979172,283.533844 
	C104.477684,284.889679 104.342079,288.005219 104.429443,291.088379 
	C105.263870,320.536591 106.169022,349.982788 107.031517,379.430267 
	C107.227104,386.107910 104.740227,388.512360 98.017548,388.040070 
	C86.067429,387.200531 74.123779,386.268860 61.706047,385.360229 
z"/>
<path fill="#000000" opacity="1.000000" stroke="none" 
	d="
M228.181290,298.040588 
	C230.495758,313.431427 230.104553,312.757599 216.092422,317.997375 
	C206.807480,321.469452 206.805786,321.493317 209.977356,330.688385 
	C211.333145,334.619110 212.920990,338.480194 214.072098,342.468506 
	C215.428146,347.166931 213.808182,350.061493 209.191559,351.117157 
	C201.253159,352.932373 193.267349,354.547302 185.279968,356.138428 
	C180.546143,357.081451 177.238358,355.467163 175.603424,350.621826 
	C173.600800,344.686768 171.329742,338.842255 168.966019,332.388733 
	C160.339417,335.931061 152.229263,339.260986 144.119461,342.591797 
	C142.735062,343.160400 141.379517,343.814270 139.963684,344.288544 
	C135.269684,345.860870 132.029663,344.171173 130.899796,339.493500 
	C129.769348,334.813446 128.858948,330.079437 127.687813,325.410278 
	C126.621719,321.159912 128.183395,318.293274 131.937408,316.400360 
	C138.474487,313.104065 144.970840,309.721558 151.578598,306.573120 
	C154.887970,304.996246 156.205078,303.052490 155.455261,299.156464 
	C152.699020,284.835114 152.892639,284.960327 166.430191,279.109100 
	C183.139572,271.886993 181.708374,273.047760 189.570251,287.048279 
	C193.261734,293.622131 193.235809,293.618958 199.587387,289.904755 
	C204.900864,286.797577 210.202347,283.667542 215.569321,280.654816 
	C221.875763,277.114746 225.213226,278.707794 226.384750,285.763947 
	C227.037750,289.696960 227.557816,293.652069 228.181290,298.040588 
z"/>
<path fill="#000000" opacity="1.000000" stroke="none" 
	d="
M613.265869,435.865784 
	C611.011719,435.067230 609.123840,434.415070 607.234314,433.767853 
	C599.024902,430.955841 597.814880,428.619690 600.937012,420.376923 
	C603.172852,414.474091 604.958862,408.405792 607.838928,402.725281 
	C609.592346,399.266846 612.155518,398.054810 615.552490,398.902740 
	C625.557617,401.400116 635.533875,404.028717 645.453674,406.844604 
	C649.286865,407.932739 650.701599,410.883179 649.355713,414.693481 
	C646.585999,422.535248 643.775269,430.367096 640.744263,438.110199 
	C639.121704,442.255188 635.661133,443.152740 631.661255,441.906738 
	C625.625183,440.026398 619.638855,437.986542 613.265869,435.865784 
z"/>
<path fill="#000000" opacity="1.000000" stroke="none" 
	d="
M281.189209,307.320435 
	C269.079254,309.531647 267.888489,312.450317 263.529602,296.413422 
	C262.440643,292.407013 261.157471,288.451752 260.136292,284.429108 
	C259.202454,280.750458 260.210114,278.211548 264.107880,276.549591 
	C273.014496,272.751862 282.381409,270.463379 291.575134,267.622009 
	C296.593140,266.071167 299.249817,267.587280 300.608276,272.533142 
	C302.631439,279.899048 304.528931,287.307983 306.175873,294.765778 
	C307.324951,299.969055 305.888367,302.279144 300.672791,303.518127 
	C294.378113,305.013428 287.973206,306.044708 281.189209,307.320435 
z"/>
<path fill="#000000" opacity="1.000000" stroke="none" 
	d="
M997.336182,304.254791 
	C1002.248779,304.742859 1004.108948,307.480133 1004.162598,311.702606 
	C1004.217407,316.017120 1004.317566,320.338135 1004.150818,324.646698 
	C1003.940247,330.089264 1001.847595,332.155762 996.474609,332.247620 
	C990.335632,332.352570 984.192871,332.262207 978.052002,332.224274 
	C973.720337,332.197510 971.378845,329.971039 970.657654,325.710419 
	C969.933655,321.433258 969.703308,317.137756 969.700989,312.820007 
	C969.697876,307.075592 972.631653,303.841248 978.490295,303.754730 
	C984.623901,303.664124 990.764404,304.033813 997.336182,304.254791 
z"/>
<path fill="#000000" opacity="1.000000" stroke="none" 
	d="
M359.850128,268.712952 
	C361.069824,261.856567 362.485413,260.377625 368.616760,260.688599 
	C377.419861,261.135132 386.200958,262.010345 394.993530,262.674896 
	C397.527313,262.866394 399.499115,263.854858 400.435883,266.334900 
	C401.346558,268.746063 400.057312,270.588593 398.544342,272.164154 
	C393.815643,277.088501 389.018951,281.948883 384.184753,286.770050 
	C381.653259,289.294708 378.621521,290.326782 375.801544,287.545807 
	C370.013275,281.837677 364.386444,275.951263 359.850128,268.712952 
z"/>
<path fill="#000000" opacity="1.000000" stroke="none" 
	d="
M403.656006,276.672302 
	C406.740051,272.924774 409.435181,269.304413 412.484741,266.012329 
	C416.274414,261.921295 420.192657,262.313934 423.079742,267.102112 
	C426.517487,272.803558 429.823120,278.602112 432.840454,284.534393 
	C435.560516,289.882355 433.311249,293.429535 427.246399,293.279358 
	C419.428833,293.085724 411.597076,292.683838 403.819366,291.897369 
	C396.898010,291.197479 395.502075,287.396790 399.669128,281.619293 
	C400.836670,280.000519 402.168121,278.499939 403.656006,276.672302 
z"/>
<path fill="#000000" opacity="1.000000" stroke="none" 
	d="
M852.483948,412.080994 
	C850.261475,412.453308 848.455811,412.519318 846.722351,411.762482 
	C842.919373,410.102051 840.970764,405.379089 842.631042,401.865875 
	C844.297791,398.339020 849.363281,396.606934 852.833618,398.377258 
	C856.536255,400.266052 858.160339,405.518280 856.144714,409.049255 
	C855.380188,410.388550 854.303894,411.364075 852.483948,412.080994 
z"/>
<path fill="#000000" opacity="1.000000" stroke="none" 
	d="
M384.299164,305.719604 
	C385.169708,310.383362 383.358917,313.217804 379.196442,314.178284 
	C375.372498,315.060638 372.877899,313.114685 371.598267,309.536133 
	C370.338074,306.011841 371.467896,303.251129 374.760223,301.734894 
	C378.967499,299.797302 382.064178,301.499878 384.299164,305.719604 
z"/>
<path fill="#000000" opacity="1.000000" stroke="none" 
	d="
M720.400696,357.670685 
	C719.000366,361.143372 716.698975,362.735474 713.309937,362.018341 
	C710.794312,361.486023 709.325867,359.594757 709.154114,357.093323 
	C708.962585,354.304138 710.615723,352.445129 713.107178,351.445129 
	C716.843445,349.945526 719.636475,352.212219 720.400696,357.670685 
z"/>
<path fill="#000000" opacity="1.000000" stroke="none" 
	d="
M403.571472,323.527405 
	C398.826294,325.883514 395.676941,325.052429 394.325745,321.456787 
	C393.203033,318.469116 395.072479,315.006348 398.327087,314.112640 
	C400.625549,313.481506 402.673401,314.082581 404.101746,315.929199 
	C405.966797,318.340302 405.584351,320.852112 403.571472,323.527405 
z"/>
<path fill="#000000" opacity="1.000000" stroke="none" 
	d="
M850.040527,380.022980 
	C850.901184,375.725220 852.958740,373.206970 857.295837,374.368286 
	C860.165955,375.136719 861.534363,377.404602 861.251038,380.425446 
	C861.006104,383.037842 859.465088,384.707581 856.919983,385.121460 
	C853.243591,385.719269 850.901062,384.087585 850.040527,380.022980 
z"/>
<path fill="#000000" opacity="1.000000" stroke="none" 
	d="
M738.921997,334.202972 
	C738.128479,330.371918 739.447754,327.903381 742.890259,327.043274 
	C745.470703,326.398499 747.440613,327.765381 748.499695,330.121521 
	C749.706848,332.807159 748.693848,335.114197 746.470032,336.651367 
	C743.320129,338.828613 740.853760,337.601349 738.921997,334.202972 
z"/>
<path fill="#000000" opacity="1.000000" stroke="none" 
	d="
M92.771942,405.849426 
	C95.556465,402.410828 98.527191,401.777435 101.322922,404.975098 
	C103.739677,407.739288 102.917038,410.487610 100.125237,412.659943 
	C98.524162,413.905701 96.719734,414.041107 95.034737,412.963348 
	C92.546394,411.371796 91.443962,409.154144 92.771942,405.849426 
z"/>
<path fill="#000000" opacity="1.000000" stroke="none" 
	d="
M876.283813,444.465179 
	C874.646790,447.680939 872.366211,448.961517 869.238708,447.691559 
	C866.888550,446.737305 865.647339,444.780518 865.934143,442.192627 
	C866.195801,439.830750 867.656982,438.315186 869.957581,437.745422 
	C873.661865,436.827972 876.040222,439.207794 876.283813,444.465179 
z"/>
<path fill="#000000" opacity="1.000000" stroke="none" 
	d="
M693.505859,389.448547 
	C690.517456,391.666992 687.928101,391.532654 685.813416,388.935669 
	C684.186279,386.937439 684.184631,384.581970 685.755798,382.541412 
	C687.557312,380.201721 690.004333,379.165070 692.646240,381.048737 
	C695.713684,383.235809 696.065491,386.089691 693.505859,389.448547 
z"/>
<path fill="#000000" opacity="1.000000" stroke="none" 
	d="
M257.076782,392.000244 
	C254.893219,392.832367 253.140396,392.674011 251.727081,391.235046 
	C249.680420,389.151215 248.932617,386.697266 250.648514,384.112091 
	C252.093597,381.934906 254.270020,381.179626 256.651978,382.522491 
	C259.191620,383.954285 260.455383,386.204346 259.421417,389.139130 
	C259.065430,390.149628 258.094727,390.943573 257.076782,392.000244 
z"/>
<path fill="#000000" opacity="1.000000" stroke="none" 
	d="
M275.158936,406.391663 
	C276.791260,403.363434 278.967804,402.229736 281.919800,403.370087 
	C283.718719,404.065033 284.991486,405.425720 285.067108,407.459503 
	C285.155975,409.850616 283.972137,411.584229 281.790405,412.532898 
	C278.232849,414.079865 275.592712,411.804840 275.158936,406.391663 
z"/>
<path fill="#000000" opacity="1.000000" stroke="none" 
	d="
M59.662575,409.651672 
	C61.609715,405.962708 64.191574,404.606171 67.397217,407.204102 
	C69.726318,409.091705 70.001770,411.835815 68.071701,414.267487 
	C66.073433,416.785095 63.518970,416.693420 61.078156,414.866180 
	C59.491447,413.678314 58.995029,411.963745 59.662575,409.651672 
z"/>
<path fill="#000000" opacity="1.000000" stroke="none" 
	d="
M92.048752,442.638428 
	C91.598763,438.742920 92.678734,435.995026 96.613617,436.206848 
	C99.929337,436.385345 101.566055,438.719543 101.130753,442.124634 
	C100.875450,444.121735 99.627022,445.501068 97.710396,446.002441 
	C95.037590,446.701538 93.216095,445.500000 92.048752,442.638428 
z"/>
<path fill="#000000" opacity="1.000000" stroke="none" 
	d="
M295.353088,436.873413 
	C299.085175,436.777313 301.139404,438.320984 301.152496,441.760864 
	C301.162537,444.395813 299.560059,446.114258 297.002289,446.522400 
	C294.385773,446.939911 292.501343,445.570892 291.635620,443.150055 
	C290.503052,439.983032 292.341125,438.214355 295.353088,436.873413 
z"/>
<path fill="#000000" opacity="1.000000" stroke="none" 
	d="
M364.665710,328.711853 
	C361.243958,330.613525 358.989502,329.535522 357.499268,326.595062 
	C356.333649,324.295105 357.349304,322.451294 359.175476,321.008759 
	C361.136597,319.459625 363.172516,319.616302 364.976410,321.255554 
	C367.577148,323.618866 367.318146,326.080658 364.665710,328.711853 
z"/>
</svg>